<svg xmlns="http://www.w3.org/2000/svg" viewBox="0 0 502.88 161.14"><defs><style>.cls-1,.cls-2{fill:#143a63;}.cls-2{fill-rule:evenodd;}.cls-3{fill:#e30613;}</style></defs><g id="Camada_2" data-name="Camada 2"><g id="Camada_1-2" data-name="Camada 1"><path class="cls-1" d="M493.36,155.05V142.11h-1.65v14.57h8.81v-1.63Zm-13.62-2.18,3.35-7.49,3.35,7.49Zm8.41,3.81h1.79l-6.76-14.78H483l-6.76,14.78H478l1.07-2.39h8Zm-15.35-14.6V153l-10-11.08h-.1V156.7h1.66V145.82l10,11.08h.08V142.08ZM452.85,155.2a5.82,5.82,0,1,1,5.86-5.81A5.83,5.83,0,0,1,452.85,155.2Zm0,1.67a7.48,7.48,0,1,0-7.49-7.47A7.51,7.51,0,0,0,452.85,156.87Zm-11.47-.19H443V142.11h-1.66Zm-7,.19a7,7,0,0,0,5-2.14l-.95-1.32a5.78,5.78,0,1,1-4.14-9.83,5.83,5.83,0,0,1,4.13,1.83l1-1.3a7.32,7.32,0,0,0-5-2.2,7.48,7.48,0,1,0,0,15Zm-17.35-4,3.36-7.49,3.35,7.49Zm8.41,3.81h1.8l-6.77-14.78h-.18l-6.76,14.78h1.79l1.07-2.39h8Zm-15-7h-3v-5.94h3a3.31,3.31,0,0,1,3.49,3.06A3.23,3.23,0,0,1,410.37,149.69Zm-4.63,7h1.65v-5.37h3c2.83,0,5.14-2,5.14-4.49a5,5,0,0,0-5.14-4.71h-4.63Zm-8.34.22c3.11,0,5.41-2.48,5.41-5.88v-8.91h-1.65V151c0,2.44-1.6,4.23-3.76,4.23s-3.77-1.78-3.77-4.23v-8.9H392V151C392,154.42,394.29,156.9,397.4,156.9Zm-12.3,0a7,7,0,0,0,5-2.14l-.95-1.32a5.84,5.84,0,1,1,0-8l1-1.3a7.34,7.34,0,0,0-5-2.2,7.48,7.48,0,1,0,0,15Zm-16.59-1.67a5.82,5.82,0,1,1,5.87-5.81A5.84,5.84,0,0,1,368.51,155.2Zm0,1.67A7.48,7.48,0,1,0,361,149.4,7.51,7.51,0,0,0,368.51,156.87Zm-24.14-4,3.36-7.49,3.35,7.49Zm8.41,3.81h1.8l-6.77-14.78h-.18l-6.76,14.78h1.79l1.07-2.39h8Zm-12.61-2-.95-1.33a5.74,5.74,0,0,1-9.93-4,5.93,5.93,0,0,1,5.79-5.83,5.83,5.83,0,0,1,4.13,1.83l1-1.3a7.32,7.32,0,0,0-5-2.2,7.48,7.48,0,0,0-.76,14.92l-1,1.36.27.32a3.69,3.69,0,0,1,.62-.06c.65,0,.89.22.89.55,0,.6-.82,1-2.68,1.09l.43,1c2.07-.09,3.41-1,3.41-2.18a1.19,1.19,0,0,0-1.32-1.18l-.43,0,.71-.94A6.93,6.93,0,0,0,340.17,154.73Zm-16.51-12.65V153l-10-11.08h-.09V156.7h1.65V145.82l10,11.08h.09V142.08Zm-22.07,10.79,3.35-7.49,3.35,7.49Zm8.41,3.81h1.79L305,141.9h-.19l-6.75,14.78h1.78l1.07-2.39h8Zm-21.17-7.08v-5.86h2.72a2.94,2.94,0,1,1,0,5.87Zm8.85,7.08-4.34-5.87a4.27,4.27,0,0,0,3.07-4.05,4.79,4.79,0,0,0-4.92-4.65h-4.32v14.57h1.65V151h2.73l4.08,5.68Zm-18.85.22c3.12,0,5.42-2.48,5.42-5.88v-8.91H282.6V151c0,2.44-1.6,4.23-3.77,4.23s-3.76-1.78-3.76-4.23v-8.9h-1.65V151C273.42,154.42,275.72,156.9,278.83,156.9ZM271.18,149h-6.94v1.48h5.24a2.53,2.53,0,0,1,0,.29c0,2.58-2.25,4.49-5.11,4.49a5.83,5.83,0,1,1-.13-11.66,6.75,6.75,0,0,1,4.37,1.9l.93-1.37a8.37,8.37,0,0,0-5.3-2.18,7.49,7.49,0,1,0,.07,15,6.75,6.75,0,0,0,6.92-6.88A9,9,0,0,0,271.18,149Zm-16.28-5.24v-1.61h-8.6v14.57h8.6v-1.63H248V150h6v-1.65h-6v-4.61ZM239,156.88c2.82,0,5.14-1.62,5.14-4.14,0-2.35-2.07-3.36-4.27-4.25-1.89-.72-3.49-1.24-3.49-2.65a2.68,2.68,0,0,1,2.91-2.34,3.2,3.2,0,0,1,3,1.84l1.24-.83a4.27,4.27,0,0,0-4.19-2.62c-2.57,0-4.59,1.66-4.59,3.91s2,3.13,3.8,3.83,4,1.5,4,3.14c0,1.44-1.56,2.47-3.48,2.47a4.26,4.26,0,0,1-3.71-2.08l-1.26.93A5.29,5.29,0,0,0,239,156.88Zm-12.1-13.16v-1.61H218.3v14.57h8.59v-1.63H220V150h6v-1.65h-6v-4.61Zm-16.66,0v-1.61h-8.59v14.57h8.59v-1.63h-6.94V150h6v-1.65h-6v-4.61ZM191.88,155h-2.43v-11.3h2.41c3.53,0,5.8,2.22,5.8,5.67S195.4,155,191.88,155Zm0-12.94H187.8v14.57h4.07c4.55,0,7.45-2.83,7.45-7.27s-2.9-7.3-7.45-7.3Zm-12.42,14.8c3.12,0,5.42-2.48,5.42-5.88v-8.91h-1.65V151c0,2.44-1.6,4.23-3.77,4.23s-3.76-1.78-3.76-4.23v-8.9H174V151C174,154.42,176.34,156.9,179.45,156.9Zm-.11-16,2.16-3H180l-1.91,3Zm-17.12,11.94,3.35-7.49,3.36,7.49Zm8.41,3.81h1.79l-6.76-14.78h-.18l-6.76,14.78h1.79l1.06-2.39h8Zm-17.2.2c2.81,0,5.14-1.62,5.14-4.14,0-2.35-2.07-3.36-4.27-4.25-1.89-.72-3.5-1.24-3.5-2.65s1.35-2.34,2.92-2.34a3.2,3.2,0,0,1,3,1.84l1.24-.83a4.27,4.27,0,0,0-4.19-2.62c-2.57,0-4.59,1.66-4.59,3.91s2,3.13,3.8,3.83,4,1.5,4,3.14c0,1.44-1.56,2.47-3.48,2.47a4.24,4.24,0,0,1-3.71-2.08l-1.27.93A5.32,5.32,0,0,0,153.43,156.88Zm-12.75-15-7,11.59-7-11.59h-.19v14.84h1.65v-9.9l5.51,9.66h0l5.5-9.65v9.89h1.65V141.84Zm-16.76,1.88v-1.61h-8.59v14.57h8.59v-1.63H117V150h6v-1.65h-6v-4.61Zm-21.35,13.16c2.82,0,5.14-1.62,5.14-4.14,0-2.35-2.07-3.36-4.27-4.25-1.89-.72-3.5-1.24-3.5-2.65s1.35-2.34,2.92-2.34a3.2,3.2,0,0,1,3,1.84l1.24-.83a4.27,4.27,0,0,0-4.19-2.62c-2.57,0-4.59,1.66-4.59,3.91s2,3.13,3.8,3.83,4,1.5,4,3.14c0,1.44-1.56,2.47-3.48,2.47a4.26,4.26,0,0,1-3.71-2.08l-1.27.93A5.32,5.32,0,0,0,102.57,156.88Zm-6.66-13.16v-1.61H87.32v14.57h8.59v-1.63H89V150h6v-1.65H89v-4.61ZM77.48,155.2a5.82,5.82,0,1,1,5.86-5.81A5.83,5.83,0,0,1,77.48,155.2Zm0,1.67A7.48,7.48,0,1,0,70,149.4,7.51,7.51,0,0,0,77.48,156.87Zm-2.54-16.29c.21-.73.61-1.2,1.18-1.2,1,0,1.38,1.31,2.74,1.31a2.05,2.05,0,0,0,2-1.81l-.85-.33c-.21.74-.61,1.21-1.19,1.21-1,0-1.37-1.31-2.73-1.31a2.05,2.05,0,0,0-2,1.81Zm-6.19,14.15-1-1.33a5.74,5.74,0,0,1-9.93-4,5.92,5.92,0,0,1,5.79-5.83,5.83,5.83,0,0,1,4.13,1.83l1-1.3a7.34,7.34,0,0,0-5-2.2A7.48,7.48,0,0,0,63,156.83l-1,1.36.26.32a3.9,3.9,0,0,1,.63-.06c.65,0,.88.22.88.55,0,.6-.82,1-2.67,1.09l.43,1c2.07-.09,3.41-1,3.41-2.18a1.19,1.19,0,0,0-1.32-1.18l-.43,0,.71-.94A7,7,0,0,0,68.75,154.73ZM48.63,156.9c3.12,0,5.42-2.48,5.42-5.88v-8.91H52.39V151c0,2.44-1.59,4.23-3.76,4.23s-3.76-1.78-3.76-4.23v-8.9H43.22V151C43.22,154.42,45.52,156.9,48.63,156.9ZM34.2,155.05V142.11H32.54v14.57h8.82v-1.63Zm-11.5.15a5.82,5.82,0,1,1,5.86-5.81A5.83,5.83,0,0,1,22.7,155.2Zm0,1.67a7.48,7.48,0,1,0-7.5-7.47A7.51,7.51,0,0,0,22.7,156.87Zm-14,0c2.82,0,5.14-1.62,5.14-4.14,0-2.35-2.07-3.36-4.27-4.25C7.64,147.77,6,147.25,6,145.84A2.69,2.69,0,0,1,9,143.5a3.2,3.2,0,0,1,3,1.84l1.24-.83A4.27,4.27,0,0,0,9,141.89c-2.57,0-4.59,1.66-4.59,3.91s2,3.13,3.8,3.83,4,1.5,4,3.14c0,1.44-1.56,2.47-3.48,2.47A4.26,4.26,0,0,1,5,153.16l-1.26.93A5.3,5.3,0,0,0,8.65,156.88Z"/><path class="cls-1" d="M81.31,4.67,49.08,52.84,16.85,4.67C13.73.41,14.83,0,8.4,0-.24-.15-.11.38,0,10.35v110.8c.06,6.41.87,5.8,6.18,5.8h2.6c5.85-.15,5.72,1,5.77-5.75V24.48L43.41,69c4.3,7.49,7,7.49,11.34,0l28.81-44.5V121.2c.1,7,.66,5.55,7.27,5.75h1.1c5.77-.09,6.18.94,6.18-5.8V9.14C98.27-.83,98.27,0,90.36,0c-6.43,0-5.93.38-9,4.64"/><path class="cls-1" d="M182.11,103.93c-4.75-2-9-2-13.32,1.71-17,14.77-52.08,9.72-50.78-21.41h65c4,0,6.67-.62,6.48-5.58-.85-23.07-19.15-37.85-43.86-37.85-23.38,0-41.87,20-41.17,43.08,1.23,40.41,48.42,61.36,80.18,24,1.3-1.53.09-2.87-2.55-4m-61.58-32.8c8.46-23.58,43.49-23.64,53.31,0Z"/><path class="cls-1" d="M205.31,83.32c0-16.74,13.79-30.08,31.1-30.08S267,66.58,267,83.32s-13.16,29.92-30.55,29.92-31.1-13-31.1-29.92m61.06,29v12.2c-.05,2.44,1,2.81,2.69,2.83l7.29,0c1.91-.07,2.41-.89,2.41-2.64V4c0-2.27-.62-2.23-2.94-2.23H268.7c-2-.05-2.4.48-2.33,2.12v49c-24.49-27.39-75.51-6.18-73.66,31.91,1.15,23.75,19.2,42.08,43.7,42.08C249.06,126.88,260.09,122.26,266.37,112.3Z"/><path class="cls-2" d="M292.29,47h7.35a3.08,3.08,0,0,1,2.48,2.48v75.32a3.09,3.09,0,0,1-2.48,2.48h-7.35a3.08,3.08,0,0,1-2.48-2.48V49.51A3.09,3.09,0,0,1,292.29,47"/><path class="cls-2" d="M296,23.32a7.85,7.85,0,1,1-7.85,7.85A7.85,7.85,0,0,1,296,23.32"/><path class="cls-3" d="M488.16,35.72c2,0,4.3,0,6.89,0l6.84,0a1,1,0,0,1,.57.19,1,1,0,0,1,.24,1.37L471.28,81.44l31,43.89a1,1,0,0,1,.22.62,1,1,0,0,1-1,1h-9.83v0h-23c-3,0-3.64.13-5.46-2.39l-16.37-23.79-16,22.85c-1.78,2.73-2,3.33-5.58,3.33h-20c-1.6,0-2.38-.92-1.11-2.82l29.29-42.61L403.51,38c-1.42-2.18-1.89-2.21,1.61-2.22C435.2,35.63,427.94,34.6,447,62c18.83-27.36,11.84-26.41,41.17-26.29M490.32,125h9.29L469.26,82a1,1,0,0,1,0-1.17L500,37.72l-4.94,0-4.32,0L460.25,81.44ZM311.69,6V124.13c0,2.23.64,2.79,3.16,2.82h84.79c1.69,0,2.14-1.2,2.15-3V110.74c.15-2.42-1-3.18-2.62-3.18H332V72.08H391.7a2.88,2.88,0,0,0,2.57-2.75v-14c0-1.65-.64-2.55-2.32-2.57H332V22.12H399.4c2.49,0,2.39,0,2.39-2.68V6c-.08-3.48.34-3.2-3.17-3.2H315.05C312.48,2.76,311.73,3.17,311.69,6Z"/><path class="cls-1" d="M140.68,141.84l-7,11.59-7-11.59h-.19v14.84h1.65v-9.9l5.51,9.66h0l5.5-9.65v9.89h1.65V141.84Zm-16.76,1.88v-1.61h-8.59v14.57h8.59v-1.63H117V150h6v-1.65h-6v-4.61Zm-21.35,13.16c2.82,0,5.14-1.62,5.14-4.14,0-2.35-2.07-3.36-4.27-4.25-1.89-.72-3.5-1.24-3.5-2.65s1.35-2.34,2.92-2.34a3.2,3.2,0,0,1,3,1.84l1.24-.83a4.27,4.27,0,0,0-4.19-2.62c-2.57,0-4.59,1.67-4.59,3.91s2,3.13,3.8,3.83,4,1.5,4,3.14c0,1.44-1.56,2.47-3.48,2.47a4.26,4.26,0,0,1-3.71-2.08l-1.27.93A5.32,5.32,0,0,0,102.57,156.88Zm-6.66-13.16v-1.61H87.32v14.57h8.59v-1.63H89V150h6v-1.65H89v-4.61ZM77.48,155.2a5.82,5.82,0,1,1,5.86-5.81A5.83,5.83,0,0,1,77.48,155.2Zm0,1.67A7.48,7.48,0,1,0,70,149.4,7.51,7.51,0,0,0,77.48,156.87Zm-2.54-16.29c.21-.73.61-1.21,1.18-1.21,1,0,1.38,1.32,2.74,1.32a2.05,2.05,0,0,0,2-1.81l-.85-.33c-.21.74-.61,1.21-1.19,1.21-1,0-1.37-1.31-2.73-1.31a2.05,2.05,0,0,0-2,1.81Zm-6.19,14.15-1-1.33a5.74,5.74,0,0,1-9.93-4,5.92,5.92,0,0,1,5.79-5.83,5.83,5.83,0,0,1,4.13,1.83l1-1.3a7.34,7.34,0,0,0-5-2.2A7.48,7.48,0,0,0,63,156.83l-1,1.36.26.32a3.9,3.9,0,0,1,.63-.06c.65,0,.88.22.88.55,0,.6-.82,1-2.67,1.09l.43,1c2.07-.09,3.41-1,3.41-2.18a1.19,1.19,0,0,0-1.32-1.18l-.43,0,.71-.94A7,7,0,0,0,68.75,154.73ZM48.63,156.9c3.12,0,5.42-2.48,5.42-5.88v-8.91H52.39V151c0,2.44-1.59,4.23-3.76,4.23s-3.76-1.78-3.76-4.23v-8.9H43.22V151C43.22,154.42,45.52,156.9,48.63,156.9Zm-14.44-1.85V142.11H32.54v14.57h8.82v-1.63Zm-11.49.15a5.82,5.82,0,1,1,5.86-5.81A5.83,5.83,0,0,1,22.7,155.2Zm0,1.67a7.48,7.48,0,1,0-7.5-7.47A7.51,7.51,0,0,0,22.7,156.87Zm126-2.94v.58a4.36,4.36,0,0,1-.23-.42Zm-140,2.95c2.82,0,5.14-1.62,5.14-4.14,0-2.35-2.07-3.36-4.27-4.25C7.64,147.77,6,147.25,6,145.84A2.69,2.69,0,0,1,9,143.5a3.2,3.2,0,0,1,3,1.84l1.24-.83A4.27,4.27,0,0,0,9,141.89c-2.57,0-4.59,1.67-4.59,3.91s2,3.13,3.8,3.83,4,1.5,4,3.14c0,1.44-1.56,2.47-3.48,2.47A4.26,4.26,0,0,1,5,153.16l-1.26.93A5.3,5.3,0,0,0,8.65,156.88Z"/><path class="cls-1" d="M83.56,84.08V121.2c.11,7,.66,5.55,7.27,5.75h1.1c5.77-.09,6.18.94,6.18-5.8V84.08Zm-83.51,0v37.07c.06,6.41.87,5.8,6.18,5.8h2.6c5.85-.15,5.72,1,5.77-5.75V84.08Z"/><path class="cls-1" d="M104.49,84.08h44.2v.15H118c-.88,21.16,15,30.27,30.68,29.29v13.81c-22.89,1.07-43.3-16.94-44.2-43.25"/><path class="cls-1" d="M81.31,4.67,49.08,52.84,16.85,4.67C13.73.41,14.83,0,8.4,0-.24-.15-.11.38,0,10.35V84.08H14.6V24.48L43.41,69c4.3,7.49,7,7.49,11.34,0l28.81-44.5v59.6H98.11V9.14C98.27-.83,98.27,0,90.36,0c-6.43,0-5.93.38-9,4.64"/><path class="cls-1" d="M120.53,71.13C125,58.63,137,52.74,148.69,53.49V40.88c-1-.05-2-.08-3-.08-23.38,0-41.87,20-41.17,43.08,0,.07,0,.13,0,.2h44.2v-13Z"/><path class="cls-1" d="M344.37,152.87l3.36-7.49,3.35,7.49Zm8.41,3.81h1.8l-6.77-14.78h-.18l-6.76,14.78h1.79l1.07-2.39h8Zm-12.61-2-.95-1.33a5.74,5.74,0,0,1-9.93-4,5.92,5.92,0,0,1,5.79-5.83,5.83,5.83,0,0,1,4.13,1.83l1-1.3a7.32,7.32,0,0,0-5-2.2,7.48,7.48,0,0,0-.76,14.92l-1,1.36.26.32a3.9,3.9,0,0,1,.63-.06c.65,0,.89.22.89.55,0,.6-.82,1-2.68,1.09l.43,1c2.07-.09,3.41-1,3.41-2.18a1.19,1.19,0,0,0-1.32-1.18l-.43,0,.71-.94A6.93,6.93,0,0,0,340.17,154.73Zm-16.51-12.65V153l-10-11.08h-.09V156.7h1.65V145.82l10,11.08h.09V142.08Zm-22.07,10.79,3.35-7.49,3.35,7.49Zm8.41,3.81h1.79L305,141.9h-.19l-6.75,14.78h1.78l1.07-2.39h8Zm-21.17-7.08v-5.86h2.72a2.94,2.94,0,1,1,0,5.87Zm8.85,7.08-4.34-5.87a4.27,4.27,0,0,0,3.07-4.05,4.79,4.79,0,0,0-4.92-4.65h-4.32v14.57h1.65V151h2.73l4.08,5.68Zm-18.85.22c3.12,0,5.42-2.48,5.42-5.88v-8.91H282.6V151c0,2.44-1.6,4.23-3.77,4.23s-3.76-1.78-3.76-4.23v-8.9h-1.65V151C273.42,154.42,275.72,156.9,278.83,156.9ZM271.18,149h-6.94v1.48h5.24v.29c0,2.58-2.24,4.49-5.1,4.49a5.83,5.83,0,1,1-.13-11.66,6.75,6.75,0,0,1,4.37,1.9l.93-1.37a8.37,8.37,0,0,0-5.3-2.18,7.49,7.49,0,1,0,.07,15,6.75,6.75,0,0,0,6.92-6.88A9,9,0,0,0,271.18,149Zm-16.28-5.24v-1.61h-8.6v14.57h8.6v-1.63H248V150h6v-1.65h-6v-4.61ZM239,156.88c2.82,0,5.14-1.62,5.14-4.14,0-2.35-2.07-3.36-4.27-4.25-1.89-.72-3.49-1.24-3.49-2.65a2.68,2.68,0,0,1,2.91-2.34,3.2,3.2,0,0,1,3,1.84l1.24-.83a4.27,4.27,0,0,0-4.19-2.62c-2.57,0-4.59,1.67-4.59,3.91s2,3.13,3.8,3.83,4,1.5,4,3.14c0,1.44-1.56,2.47-3.48,2.47a4.26,4.26,0,0,1-3.71-2.08l-1.26.93A5.29,5.29,0,0,0,239,156.88Zm-12.1-13.16v-1.61H218.3v14.57h8.59v-1.63H220V150h6v-1.65h-6v-4.61Zm-16.66,0v-1.61h-8.59v14.57h8.59v-1.63h-6.94V150h6v-1.65h-6v-4.61ZM191.88,155h-2.43v-11.3h2.41c3.53,0,5.8,2.22,5.8,5.67S195.4,155,191.88,155Zm0-12.94H187.8v14.57h4.07c4.55,0,7.45-2.83,7.45-7.27s-2.9-7.3-7.45-7.3Zm-12.42,14.8c3.12,0,5.42-2.48,5.42-5.88v-8.91h-1.65V151c0,2.44-1.6,4.23-3.77,4.23s-3.76-1.78-3.76-4.23v-8.9H174V151C174,154.42,176.34,156.9,179.45,156.9Zm-.11-16,2.16-3H180l-1.91,3Zm-17.12,11.94,3.35-7.49,3.36,7.49Zm8.41,3.81h1.79l-6.76-14.78h-.18l-6.76,14.78h1.79l1.06-2.39h8Zm-21.94-2.17v-.58l1-.77a4.24,4.24,0,0,0,3.71,2.08c1.92,0,3.48-1,3.48-2.47,0-1.64-2.1-2.43-4-3.14s-3.8-1.57-3.8-3.83,2-3.91,4.59-3.91a4.27,4.27,0,0,1,4.19,2.62l-1.24.83a3.2,3.2,0,0,0-3-1.84c-1.57,0-2.92,1-2.92,2.34s1.61,1.93,3.5,2.65c2.2.89,4.27,1.9,4.27,4.25,0,2.52-2.33,4.14-5.14,4.14A5.45,5.45,0,0,1,148.69,154.51Z"/><path class="cls-1" d="M148.69,84.23v-.15h36.9a18.38,18.38,0,0,1-2.56.15Zm0,43.1V113.52a34.1,34.1,0,0,0,20.1-7.88c4.29-3.72,8.57-3.71,13.32-1.71,2.64,1.11,3.85,2.45,2.55,4C173.67,120.83,160.83,126.76,148.69,127.33Z"/><path class="cls-1" d="M266.37,112.3v12.2c-.05,2.44,1,2.81,2.69,2.83l7.29,0c1.91-.07,2.41-.89,2.41-2.64V84.08H267c-.39,16.45-13.41,29.16-30.54,29.16s-30.69-12.63-31.09-29.16H192.69c0,.24,0,.48,0,.72,1.15,23.75,19.2,42.08,43.7,42.08,12.65,0,23.68-4.62,30-14.58"/><path class="cls-2" d="M302.12,84.08v40.75a3.09,3.09,0,0,1-2.48,2.48h-7.35a3.08,3.08,0,0,1-2.48-2.48V84.08Z"/><path class="cls-3" d="M311.69,84.08v40.05c0,2.23.64,2.79,3.16,2.82h41.7V107.56H332V84.08Z"/><path class="cls-1" d="M148.69,53.49c10.37.66,20.54,6.54,25.15,17.64H148.69v13h36.9c2.52-.38,4.06-1.62,3.92-5.43C188.7,56.54,171.85,42,148.69,40.88Z"/><path class="cls-1" d="M278.76,84.08V4c0-2.27-.62-2.23-2.94-2.23h-7.12c-1.95-.05-2.39.48-2.32,2.12v49C242,25.67,191.52,46.44,192.69,84.08h12.63c0-.25,0-.51,0-.76,0-16.74,13.79-30.08,31.1-30.08S267,66.58,267,83.32c0,.25,0,.51,0,.76Z"/><path class="cls-2" d="M292.29,47h7.35a3.08,3.08,0,0,1,2.48,2.48V84.08H289.81V49.51A3.09,3.09,0,0,1,292.29,47"/><path class="cls-2" d="M296,23.32a7.85,7.85,0,1,1-7.85,7.85A7.85,7.85,0,0,1,296,23.32"/><path class="cls-3" d="M311.69,6V84.08H332v-12h24.6V52.76H332V22.12h24.6V2.82h-41.5c-2.57-.06-3.32.35-3.36,3.19"/><path class="cls-3" d="M473.15,84.08h-2.42L469.26,82a1,1,0,0,1,0-1.17L500,37.72l-4.94,0-4.32,0L460.25,81.44l1.83,2.64H431.75l1.76-2.55L403.51,38c-1.42-2.18-1.89-2.21,1.61-2.22C435.2,35.63,427.94,34.6,447,62c18.83-27.36,11.84-26.41,41.17-26.29,2,0,4.3,0,6.89,0l6.84,0a1,1,0,0,1,.57.19,1,1,0,0,1,.24,1.37L471.28,81.44Zm-116.6-62H399.4c2.49,0,2.39,0,2.39-2.68V6c-.08-3.48.34-3.2-3.17-3.2H356.55Zm0,50H391.7a2.88,2.88,0,0,0,2.57-2.75v-14c0-1.65-.64-2.55-2.32-2.57h-35.4Z"/><path class="cls-1" d="M493.36,155.05V142.11h-1.65v14.57h8.81v-1.63Zm-13.62-2.18,3.35-7.49,3.35,7.49Zm8.41,3.81h1.79l-6.76-14.78H483l-6.76,14.78H478l1.07-2.39h8Zm-15.35-14.6V153l-10-11.08h-.1V156.7h1.66V145.82l10,11.08h.08V142.08ZM452.85,155.2a5.82,5.82,0,1,1,5.86-5.81A5.83,5.83,0,0,1,452.85,155.2Zm0,1.67a7.48,7.48,0,1,0-7.49-7.47A7.51,7.51,0,0,0,452.85,156.87Zm-11.47-.19H443V142.11h-1.66Zm-7,.19a7,7,0,0,0,5-2.14l-.95-1.32a5.78,5.78,0,1,1-4.14-9.83,5.83,5.83,0,0,1,4.13,1.83l1-1.3a7.32,7.32,0,0,0-5-2.2,7.48,7.48,0,1,0,0,15Zm-17.35-4,3.36-7.49,3.35,7.49Zm8.41,3.81h1.8l-6.77-14.78h-.18l-6.76,14.78h1.79l1.07-2.39h8Zm-15-7h-3v-5.94h3a3.31,3.31,0,0,1,3.49,3.06A3.23,3.23,0,0,1,410.37,149.69Zm-4.63,7h1.65v-5.37h3c2.83,0,5.14-2,5.14-4.49a5,5,0,0,0-5.14-4.71h-4.63Zm-8.34.22c3.11,0,5.41-2.48,5.41-5.88v-8.91h-1.65V151c0,2.44-1.6,4.23-3.76,4.23s-3.77-1.78-3.77-4.23v-8.9H392V151C392,154.42,394.29,156.9,397.4,156.9Zm-12.3,0a7,7,0,0,0,5-2.14l-.95-1.32a5.84,5.84,0,1,1,0-8l1-1.3a7.34,7.34,0,0,0-5-2.2,7.48,7.48,0,1,0,0,15Zm-16.59-1.67a5.82,5.82,0,1,1,5.87-5.81A5.84,5.84,0,0,1,368.51,155.2Zm0,1.67A7.48,7.48,0,1,0,361,149.4,7.51,7.51,0,0,0,368.51,156.87Z"/><path class="cls-3" d="M431.75,84.08h30.33L490.32,125h9.29L470.73,84.08h2.42l29.14,41.25a1,1,0,0,1,.22.62,1,1,0,0,1-1,1h-9.83v0h-23c-3,0-3.64.13-5.46-2.39l-16.37-23.79-16,22.85c-1.78,2.73-2,3.33-5.58,3.33h-20c-1.6,0-2.38-.92-1.11-2.82ZM356.55,127h43.09c1.69,0,2.14-1.2,2.15-3V110.74c.15-2.42-1-3.18-2.62-3.18H356.55Z"/></g></g></svg>