<svg xmlns="http://www.w3.org/2000/svg" viewBox="0 0 502.88 127.38"><defs><style>.cls-1,.cls-2{fill:#143a63;}.cls-2{fill-rule:evenodd;}.cls-3{fill:#e30613;}</style></defs><g id="Camada_2" data-name="Camada 2"><g id="Camada_1-2" data-name="Camada 1"><path class="cls-1" d="M81.31,4.67,49.08,52.84,16.85,4.67C13.73.41,14.83,0,8.4,0-.24-.15-.11.38,0,10.35v110.8c.06,6.41.87,5.8,6.18,5.8h2.6c5.85-.15,5.72,1,5.77-5.75V24.48L43.41,69c4.3,7.49,7,7.49,11.34,0l28.81-44.5V121.2c.1,7,.66,5.55,7.27,5.75h1.1c5.77-.09,6.18.94,6.18-5.8V9.14C98.27-.83,98.27,0,90.36,0c-6.43,0-5.93.38-9,4.64"/><path class="cls-1" d="M182.11,103.93c-4.75-2-9-2-13.32,1.71-17,14.77-52.08,9.72-50.78-21.41h65c4,0,6.67-.62,6.48-5.58-.85-23.07-19.15-37.85-43.86-37.85-23.38,0-41.87,20-41.17,43.08,1.23,40.41,48.42,61.36,80.18,24,1.3-1.53.09-2.87-2.55-4m-61.58-32.8c8.46-23.58,43.49-23.64,53.31,0Z"/><path class="cls-1" d="M205.31,83.32c0-16.74,13.79-30.08,31.1-30.08S267,66.58,267,83.32s-13.16,29.92-30.55,29.92-31.1-13-31.1-29.92m61.06,29v12.2c-.05,2.44,1,2.81,2.69,2.83l7.29,0c1.91-.07,2.41-.89,2.41-2.64V4c0-2.27-.62-2.23-2.94-2.23H268.7c-2-.05-2.4.48-2.33,2.12v49c-24.49-27.39-75.51-6.18-73.66,31.91,1.15,23.75,19.2,42.08,43.7,42.08C249.06,126.88,260.09,122.26,266.37,112.3Z"/><path class="cls-2" d="M292.29,47h7.35a3.08,3.08,0,0,1,2.48,2.48v75.32a3.09,3.09,0,0,1-2.48,2.48h-7.35a3.08,3.08,0,0,1-2.48-2.48V49.51A3.09,3.09,0,0,1,292.29,47"/><path class="cls-2" d="M296,23.32a7.85,7.85,0,1,1-7.85,7.85A7.85,7.85,0,0,1,296,23.32"/><path class="cls-3" d="M488.16,35.72c2,0,4.3,0,6.89,0l6.84,0a1,1,0,0,1,.57.19,1,1,0,0,1,.24,1.37L471.28,81.44l31,43.89a1,1,0,0,1,.22.62,1,1,0,0,1-1,1h-9.83v0h-23c-3,0-3.64.13-5.46-2.39l-16.37-23.79-16,22.85c-1.78,2.73-2,3.33-5.58,3.33h-20c-1.6,0-2.38-.92-1.11-2.82l29.29-42.61L403.51,38c-1.42-2.18-1.89-2.21,1.61-2.22C435.2,35.63,427.94,34.6,447,62c18.83-27.36,11.84-26.41,41.17-26.29M490.32,125h9.29L469.26,82a1,1,0,0,1,0-1.17L500,37.72l-4.94,0-4.32,0L460.25,81.44ZM311.69,6V124.13c0,2.23.64,2.79,3.16,2.82h84.79c1.69,0,2.14-1.2,2.15-3V110.74c.15-2.42-1-3.18-2.62-3.18H332V72.08H391.7a2.88,2.88,0,0,0,2.57-2.75v-14c0-1.65-.64-2.55-2.32-2.57H332V22.12H399.4c2.49,0,2.39,0,2.39-2.68V6c-.08-3.48.34-3.2-3.17-3.2H315.05C312.48,2.76,311.73,3.17,311.69,6Z"/><path class="cls-1" d="M83.56,84.08V121.2c.11,7,.66,5.55,7.27,5.75h1.1c5.77-.09,6.18.94,6.18-5.8V84.08Zm-83.51,0v37.07c.06,6.41.87,5.8,6.18,5.8h2.6c5.85-.15,5.72,1,5.77-5.75V84.08Z"/><path class="cls-1" d="M104.49,84.08h44.2v.15H118c-.88,21.16,15,30.27,30.68,29.29v13.81c-22.89,1.07-43.3-16.94-44.2-43.25"/><path class="cls-1" d="M81.31,4.67,49.08,52.84,16.85,4.67C13.73.41,14.83,0,8.4,0-.24-.15-.11.38,0,10.35V84.08H14.6V24.48L43.41,69c4.3,7.49,7,7.49,11.34,0l28.81-44.5v59.6H98.11V9.14C98.27-.83,98.27,0,90.36,0c-6.43,0-5.93.38-9,4.64"/><path class="cls-1" d="M120.53,71.13C125,58.63,137,52.74,148.69,53.49V40.88c-1-.05-2-.08-3-.08-23.38,0-41.87,20-41.17,43.08,0,.07,0,.13,0,.2h44.2v-13Z"/><path class="cls-1" d="M148.69,84.23v-.15h36.9a18.38,18.38,0,0,1-2.56.15Zm0,43.1V113.52a34.1,34.1,0,0,0,20.1-7.88c4.29-3.72,8.57-3.71,13.32-1.71,2.64,1.11,3.85,2.45,2.55,4C173.67,120.83,160.83,126.76,148.69,127.33Z"/><path class="cls-1" d="M266.37,112.3v12.2c-.05,2.44,1,2.81,2.69,2.83l7.29,0c1.91-.07,2.41-.89,2.41-2.64V84.08H267c-.39,16.45-13.41,29.16-30.54,29.16s-30.69-12.63-31.09-29.16H192.69c0,.24,0,.48,0,.72,1.15,23.75,19.2,42.08,43.7,42.08,12.65,0,23.68-4.62,30-14.58"/><path class="cls-2" d="M302.12,84.08v40.75a3.09,3.09,0,0,1-2.48,2.48h-7.35a3.08,3.08,0,0,1-2.48-2.48V84.08Z"/><path class="cls-3" d="M311.69,84.08v40.05c0,2.23.64,2.79,3.16,2.82h41.7V107.56H332V84.08Z"/><path class="cls-1" d="M148.69,53.49c10.37.66,20.54,6.54,25.15,17.64H148.69v13h36.9c2.52-.38,4.06-1.62,3.92-5.43C188.7,56.54,171.85,42,148.69,40.88Z"/><path class="cls-1" d="M278.76,84.08V4c0-2.27-.62-2.23-2.94-2.23h-7.12c-1.95-.05-2.39.48-2.32,2.12v49C242,25.67,191.52,46.44,192.69,84.08h12.63c0-.25,0-.51,0-.76,0-16.74,13.79-30.08,31.1-30.08S267,66.58,267,83.32c0,.25,0,.51,0,.76Z"/><path class="cls-2" d="M292.29,47h7.35a3.08,3.08,0,0,1,2.48,2.48V84.08H289.81V49.51A3.09,3.09,0,0,1,292.29,47"/><path class="cls-2" d="M296,23.32a7.85,7.85,0,1,1-7.85,7.85A7.85,7.85,0,0,1,296,23.32"/><path class="cls-3" d="M311.69,6V84.08H332v-12h24.6V52.76H332V22.12h24.6V2.82h-41.5c-2.57-.06-3.32.35-3.36,3.19"/><path class="cls-3" d="M473.15,84.08h-2.42L469.26,82a1,1,0,0,1,0-1.17L500,37.72l-4.94,0-4.32,0L460.25,81.44l1.83,2.64H431.75l1.76-2.55L403.51,38c-1.42-2.18-1.89-2.21,1.61-2.22C435.2,35.63,427.94,34.6,447,62c18.83-27.36,11.84-26.41,41.17-26.29,2,0,4.3,0,6.89,0l6.84,0a1,1,0,0,1,.57.19,1,1,0,0,1,.24,1.37L471.28,81.44Zm-116.6-62H399.4c2.49,0,2.39,0,2.39-2.68V6c-.08-3.48.34-3.2-3.17-3.2H356.55Zm0,50H391.7a2.88,2.88,0,0,0,2.57-2.75v-14c0-1.65-.64-2.55-2.32-2.57h-35.4Z"/><path class="cls-3" d="M431.75,84.08h30.33L490.32,125h9.29L470.73,84.08h2.42l29.14,41.25a1,1,0,0,1,.22.62,1,1,0,0,1-1,1h-9.83v0h-23c-3,0-3.64.13-5.46-2.39l-16.37-23.79-16,22.85c-1.78,2.73-2,3.33-5.58,3.33h-20c-1.6,0-2.38-.92-1.11-2.82ZM356.55,127h43.09c1.69,0,2.14-1.2,2.15-3V110.74c.15-2.42-1-3.18-2.62-3.18H356.55Z"/></g></g></svg>